<svg id="Design" xmlns="http://www.w3.org/2000/svg" viewBox="0 0 1024 1024"><defs><style>.cls-1{fill:#ba3935;}.cls-2{fill:#8e45ab;}</style></defs><path class="cls-1" d="M99.63,382.45h1c10.41-.19,19.67-.28,28.33-.28,10,0,19.25.12,28.14.37l1.61,0c17.87,0,28.1-9.63,30.39-28.62,9.73-80.81,65.78-142.85,146.27-161.88,43.9-10.38,47.45-14.93,47.49-60.93v-8.51c0-5.44,0-10.88,0-16.31-.15-12.07-.43-34.53-24.41-34.53A69.26,69.26,0,0,0,345,73.38c-6.09,1.21-12.24,2.34-18.4,3.48-24.78,4.55-50.41,9.27-73.81,19.62C144.53,144.35,83.7,230.06,72,351.24c-1,9.84,1.09,17.6,6.07,23.08S90.2,382.45,99.63,382.45Z"/><path class="cls-1" d="M382.8,893.51c-.05-46.24-3.59-50.81-47.3-61.07-81.79-19.2-135.24-78.89-146.65-163.76-2.44-18.17-12.37-27.38-29.52-27.38l-1.45,0c-10.71.29-20.34.44-29.45.44-9.5,0-18.27-.15-26.82-.47-.71,0-1.4,0-2.06,0-9.34,0-16.24,2.51-21.11,7.67-6.78,7.19-7,17-6.65,23.8C79.9,812.67,186.22,928.94,324.58,949.19c13,1.9,22.39,3.28,29.78,3.28h0c5.68,0,13.93-.72,20.09-6.89,8.43-8.44,8.41-21.11,8.36-46.38Z"/><path class="cls-1" d="M667.67,189.05c93,12.06,154.05,73.05,167.59,167.34,2.48,17.28,12.29,26,29.17,26h.77c9.53-.13,19.06-.24,28.6-.24,10.21,0,19.34.12,27.9.37l1.72,0c9.86,0,17.12-2.67,22.19-8.17,5.29-5.74,7.42-14,6.51-25.1-5.61-68.57-32.39-131-77.44-180.53C829.38,119,769.94,87,702.78,76.34l-9.31-1.5c-12-2-20.59-3.36-27.26-3.36-5,0-12.16.64-17.73,6.25-7.5,7.55-7.42,18.79-7.28,39.19q0,4.9,0,10.72v3.8l.07,11.4h.12c.07,5.65.1,11.06-.21,16.43C640.23,176.63,649.12,186.65,667.67,189.05Z"/><path class="cls-1" d="M925,641.45h-.75c-10,.15-19.94.26-29.91.26-10.31,0-19.62-.11-28.45-.36h-1.43c-17.15,0-27,9.29-29.31,27.62-10.44,83.17-65.25,144.29-146.61,163.49-43.73,10.32-47.27,14.87-47.29,60.95V899l0,4.29c-.21,24.21-.31,35.26,7.34,43,5.53,5.58,12.75,6.22,17.69,6.22,5.38,0,11.7-.84,20.46-2,3.17-.42,6.66-.89,10.48-1.36,66.32-8.2,129.26-41.61,177.23-94.09s75.51-117.88,77.72-184.36c.32-9.64-1.92-16.8-6.86-21.9C940.56,643.92,933.74,641.45,925,641.45Z"/><path class="cls-2" d="M673.71,776,695,767.7c42-20.74,69-47.54,85.56-96.59,6.2-18.38-3.13-29.92-21.16-36.09-56.87-19.44-90.77-65.55-90.67-123.35.1-57.27,34.36-103.15,91.65-122.72,17.38-5.94,23.64-16.76,20.3-35.1A137.31,137.31,0,0,0,677,244.82,59.18,59.18,0,0,0,663.27,243c-19,0-26.34,14.64-30.19,25.65-18,51.52-63.09,85.61-114.86,86.85-1.25,0-2.48.05-3.72.05-58.71,0-104.82-32.77-123.33-87.64-3.61-10.71-10.56-24.93-29.18-24.93a56,56,0,0,0-13.61,2c-54.66,13.65-89.56,48.36-103.73,103.16-5.72,22.13,1.44,35.25,23.21,42.55,66.06,22.13,101.91,89.26,83.38,156.15-11.95,43.13-41.2,72.93-86.94,88.54-7.56,2.58-25.26,8.62-21.62,32.41,8.21,53.67,50.91,99.63,103.84,111.78a61.18,61.18,0,0,0,13.77,1.81c19.61,0,26.87-14.35,31-26.86,17-51.44,62.92-85,116.92-85.48h1.37c57.95,0,104.4,33,124.26,88.24.12.33.26.68.43,1.07C640.83,773.3,658,780.71,673.71,776ZM512,573.32a61.21,61.21,0,1,1,61.21-61.21A61.2,61.2,0,0,1,512,573.32Z"/></svg>